# xmcd CD database file
#
# Track frame offsets:
#	150
#	11350
#	22741
#	35064
#	46989
#	59777
#	70590
#	84124
#	98172
#	112025
#	123700
#	133833
#
# Disc length: 1968 seconds
#
# Revision: 2
# Processed by: cddbd v1.5.2PL0 Copyright (c) Steve Scherf et al.
# Submitted via: CDex 1.81
#
DISCID=9d07ae0c
DTITLE=Ray Charles - blues and soul man
DYEAR=2001
DGENRE=Soul
TTITLE0=Let's Have A Ball
TTITLE1=How Long. How Long Blues
TTITLE2=Rockin' Chair Blues
TTITLE3=Going Down Slow
TTITLE4=Baby, Won't You Please Come Home
TTITLE5=A Sentimental Blues
TTITLE6=This Love Of Mine
TTITLE7=Kissa Me Baby
TTITLE8=Walking And Talking To Myself
TTITLE9=Can't You See Darling
TTITLE10=Ain't That Fine
TTITLE11=Late In The Evening Blues
EXTD=YEAR: 2001
EXTT0=
EXTT1=
EXTT2=
EXTT3=
EXTT4=
EXTT5=
EXTT6=
EXTT7=
EXTT8=
EXTT9=
EXTT10=
EXTT11=
PLAYORDER=
